# xmcd
#
# Track frame offsets:
#	150
#	11682
#	26183
#	42968
#	56133
#	66856
#	80224
#	98706
#	115658
#	129283
#	141390
#	157452
#	169683
#	185029
#	199356
#	210475
#	220174
#	230577
#	244532
#	255002
#	267903
#
# Disc length: 3751 seconds
#
# Revision: 0
# Processed by: cddbd v1.5.2PL0 Copyright (c) Steve Scherf et al.
# Submitted via: audiograbber 1.83.01
#
DISCID=370ea515
DTITLE=Various Artist - Sat.1 - Die Hit-Giganten - Oldies [CD 1)
DYEAR=2009
DGENRE=Oldies
TTITLE0=Pat Boone - Speedy Gonzales
TTITLE1=Tony Christie - Amarillo
TTITLE2=Penny McLean - Lady Bump
TTITLE3=The Beach Boys - Sloop John B.
TTITLE4=Manfred Mann - Do Wah Diddy Diddy
TTITLE5=Middle Of The Road - Chirpy Chirpy Cheep Cheep
TTITLE6=Smokie - Lay Back In The Arms Of Someone
TTITLE7=The Sweet - Love Is Like Oxygen
TTITLE8=Shocking Blue - Venus
TTITLE9=Sailor - A Glass Of Champagne
TTITLE10=Gene Pitney - Something's Gotten Hold Of My Heart
TTITLE11=Christie - Yellow River
TTITLE12=Clout - Substitute
TTITLE13=The Edwin Hawkins Singers - Oh Happy Day
TTITLE14=The Drifters - Save The Last Dance
TTITLE15=The Chordettes - Lollipop
TTITLE16=The Everly Brothers - All I Have To Do Is Dream
TTITLE17=Dolly Parton - I Will Always Love You
TTITLE18=Paul Anka - Diana
TTITLE19=Percy Sledge - When A Man Loves A Woman
TTITLE20=Ben E. King - Stand By Me
EXTD=
EXTT0=
EXTT1=
EXTT2=
EXTT3=
EXTT4=
EXTT5=
EXTT6=
EXTT7=
EXTT8=
EXTT9=
EXTT10=
EXTT11=
EXTT12=
EXTT13=
EXTT14=
EXTT15=
EXTT16=
EXTT17=
EXTT18=
EXTT19=
EXTT20=
PLAYORDER=
